<svg id="a45eba56-372e-421e-afe1-642b0eba1a4c" data-name="Layer 1" xmlns="http://www.w3.org/2000/svg" xmlns:xlink="http://www.w3.org/1999/xlink" viewBox="0 0 140.7949 114.80652"><defs><clipPath id="af202981-2af9-4ad9-99c2-d07555f195bf" transform="translate(-325.60347 -248.59674)"><rect id="f8382c0c-0689-4fed-bb7c-c667b5c24a1d" data-name="&lt;Rectangle&gt;" x="325.60347" y="248.59674" width="140.7949" height="114.80652" style="fill:none"/></clipPath></defs><title>mc_sym_debito</title><g style="clip-path:url(#af202981-2af9-4ad9-99c2-d07555f195bf)"><rect width="140.7949" height="114.80652" style="fill:none"/><path d="M370.67822,345.38867a4.50764,4.50764,0,0,1,1.97754.40625,4.21127,4.21127,0,0,1,1.41992,1.09473v-6.26758h1.66358v14.60449h-1.66358v-1.28808a4.27342,4.27342,0,0,1-1.41992,1.085,4.50764,4.50764,0,0,1-1.97754.40625,4.781,4.781,0,0,1-1.89648-.376,4.62958,4.62958,0,0,1-1.53174-1.04394,4.86407,4.86407,0,0,1-1.019-1.58789,5.66019,5.66019,0,0,1,0-4.02637,4.86991,4.86991,0,0,1,1.019-1.58692,4.64675,4.64675,0,0,1,1.53174-1.04492A4.79753,4.79753,0,0,1,370.67822,345.38867Zm.19287,1.5625a3.35636,3.35636,0,0,0-1.36425.26856,3.10067,3.10067,0,0,0-1.04981.74023,3.286,3.286,0,0,0-.66943,1.10059,3.84831,3.84831,0,0,0-.23291,1.34863,3.76365,3.76365,0,0,0,.23828,1.34863,3.33784,3.33784,0,0,0,.67432,1.10059,3.16812,3.16812,0,0,0,1.0498.74512,3.28314,3.28314,0,0,0,1.354.27441,3.33017,3.33017,0,0,0,1.33838-.26367,3.09406,3.09406,0,0,0,1.04492-.73047,3.3442,3.3442,0,0,0,.6792-1.10059,3.98218,3.98218,0,0,0,0-2.74316,3.37255,3.37255,0,0,0-.6792-1.0957,3.1052,3.1052,0,0,0-1.04492-.7295A3.33017,3.33017,0,0,0,370.87109,346.95117Zm12.272-1.5625a4.47143,4.47143,0,0,1,1.81543.36524,4.1713,4.1713,0,0,1,1.42968,1.02441,4.79662,4.79662,0,0,1,.93848,1.57715,5.96137,5.96137,0,0,1,.34961,2.02344q0,.16258-.01025.31933t-.02.29883h-7.57618a3.8294,3.8294,0,0,0,.38038,1.30859,3.08694,3.08694,0,0,0,.72509.93262,2.87416,2.87416,0,0,0,.99414.5586,3.77307,3.77307,0,0,0,1.17627.18261,4.22023,4.22023,0,0,0,1.60254-.30469,4.86909,4.86909,0,0,0,1.36914-.84179l.88233,1.13574a5.47953,5.47953,0,0,1-.92285.7002,5.036,5.036,0,0,1-.97364.45117,5.59374,5.59374,0,0,1-1.01416.23828,7.75115,7.75115,0,0,1-1.04492.07129,5.2489,5.2489,0,0,1-1.97266-.36035,4.4469,4.4469,0,0,1-1.54638-1.02442,4.66815,4.66815,0,0,1-1.00928-1.58691,5.96785,5.96785,0,0,1,0-4.082,4.69657,4.69657,0,0,1,.999-1.58789,4.54915,4.54915,0,0,1,1.51612-1.0293A4.88087,4.88087,0,0,1,383.14307,345.38867Zm-.03077,1.47071a3.07656,3.07656,0,0,0-1.15625.208,2.73347,2.73347,0,0,0-.89746.57813,3.1362,3.1362,0,0,0-.6289.88183,3.86843,3.86843,0,0,0-.33936,1.13086h5.89209a3.93445,3.93445,0,0,0-.31933-1.15527,2.95787,2.95787,0,0,0-.6084-.88281,2.59462,2.59462,0,0,0-.86231-.5625A2.869,2.869,0,0,0,383.1123,346.85938Zm-1.37939-2.75879,2.0791-3.042h2.09961l-2.54541,3.042Zm13.60986,1.28808a4.76179,4.76179,0,0,1,1.89161.375,4.65571,4.65571,0,0,1,1.52539,1.04492,4.92586,4.92586,0,0,1,1.02539,1.58692,5.59138,5.59138,0,0,1,0,4.02637,4.91981,4.91981,0,0,1-1.02539,1.58789,4.63837,4.63837,0,0,1-1.52539,1.04394,4.7454,4.7454,0,0,1-1.89161.376,4.53317,4.53317,0,0,1-1.98779-.40625,4.166,4.166,0,0,1-1.40967-1.085v1.28808H390.292V340.62207h1.65332v6.25781a4.166,4.166,0,0,1,1.40967-1.085A4.53317,4.53317,0,0,1,395.34277,345.38867Zm-.19238,1.5625a3.33259,3.33259,0,0,0-1.33887.26367,3.1053,3.1053,0,0,0-1.04492.7295,3.37255,3.37255,0,0,0-.6792,1.0957,3.98233,3.98233,0,0,0,0,2.74316,3.3442,3.3442,0,0,0,.6792,1.10059,3.09416,3.09416,0,0,0,1.04492.73047,3.33259,3.33259,0,0,0,1.33887.26367,3.27534,3.27534,0,0,0,1.35889-.27441,3.1905,3.1905,0,0,0,1.04541-.74512,3.28283,3.28283,0,0,0,.668-1.10059,3.82689,3.82689,0,0,0,.23437-1.34863,3.78509,3.78509,0,0,0-.23828-1.34863A3.366,3.366,0,0,0,397.543,347.96a3.10576,3.10576,0,0,0-1.044-.74023A3.29461,3.29461,0,0,0,395.15039,346.95117Zm8.4375-5.93359a1.19283,1.19283,0,0,1,.8418.34472,1.16571,1.16571,0,0,1,.3457.8418,1.15763,1.15763,0,0,1-.0918.457,1.13193,1.13193,0,0,1-.63379.61328,1.24021,1.24021,0,0,1-.46191.08594,1.20275,1.20275,0,0,1-.45605-.08594,1.10861,1.10861,0,0,1-.37012-.24316,1.17933,1.17933,0,0,1-.24805-.37012,1.14083,1.14083,0,0,1-.09179-.457,1.1644,1.1644,0,0,1,.09179-.4668,1.23624,1.23624,0,0,1,.24805-.375,1.14718,1.14718,0,0,1,.82617-.34472Zm.8418,14.209h-1.65235V345.5918h1.65235Zm9.88769-8.124h-4.04687v4.69629a2.82522,2.82522,0,0,0,.13769.9375,1.74433,1.74433,0,0,0,.37989.64453,1.50811,1.50811,0,0,0,.57324.375,2.078,2.078,0,0,0,.72461.12207,3.07677,3.07677,0,0,0,1.04492-.18262,4.09173,4.09173,0,0,0,.92285-.46679l.78125,1.24707a5.45739,5.45739,0,0,1-1.27832.67968,4.50323,4.50323,0,0,1-1.6123.27442,4.18833,4.18833,0,0,1-1.39942-.21875,2.64842,2.64842,0,0,1-1.0498-.66406,2.94369,2.94369,0,0,1-.65918-1.12012,4.996,4.996,0,0,1-.22852-1.59766v-4.72656h-2.05859V345.5918h2.05859v-3.02246h1.66309v3.02246h4.04687Zm6.835-1.71387a5.315,5.315,0,0,1,2.02832.38086,4.90681,4.90681,0,0,1,1.61817,1.05469,4.85772,4.85772,0,0,1,1.07031,1.5918,5.3548,5.3548,0,0,1,0,3.98632,4.85772,4.85772,0,0,1-1.07031,1.5918,4.90681,4.90681,0,0,1-1.61817,1.05469,5.59147,5.59147,0,0,1-4.05664,0,4.80926,4.80926,0,0,1-2.67675-2.64649,5.34218,5.34218,0,0,1,0-3.98632,4.80926,4.80926,0,0,1,2.67675-2.64649A5.31859,5.31859,0,0,1,421.15234,345.38867Zm0,1.5625a3.47136,3.47136,0,0,0-1.34863.25781,3.31714,3.31714,0,0,0-1.07519.71582,3.272,3.272,0,0,0-.71485,1.08985,3.88672,3.88672,0,0,0,0,2.78906,3.33765,3.33765,0,0,0,.71485,1.0957,3.2809,3.2809,0,0,0,1.07519.71973,3.63073,3.63073,0,0,0,2.69238,0,3.25155,3.25155,0,0,0,1.08008-.71973,3.32473,3.32473,0,0,0,.71582-1.0957,3.90051,3.90051,0,0,0,0-2.78906,3.23648,3.23648,0,0,0-1.7959-1.80567A3.4784,3.4784,0,0,0,421.15234,346.95117Z" transform="translate(-325.60347 -248.59674)"/><rect width="140.7949" height="89.0255" style="fill:none"/><rect x="54.57151" y="16.082" width="31.49739" height="56.6087" style="fill:#ff5f00"/><path d="M382.25327,292.98364a35.93438,35.93438,0,0,1,13.7528-28.3038,36,36,0,1,0,0,56.6076,35.93453,35.93453,0,0,1-13.7528-28.3038" transform="translate(-325.60347 -248.59674)" style="fill:#eb001b"/><path d="M450.816,315.29014v-1.1586h.46759v-.2358H450.094v.2358h.46759v1.1586Zm2.311,0v-1.3964h-.36451l-.4203.9608-.4191-.9608h-.3646v1.3964h.2574v-1.0535l.3924.9083h.2679l.3933-.9104v1.0556Z" transform="translate(-325.60347 -248.59674)" style="fill:#f79e1b"/><path d="M418.25327,256.98364a35.84478,35.84478,0,0,0-22.2481,7.6962,36.00155,36.00155,0,0,1,0,56.6076,36.00051,36.00051,0,1,0,22.2481-64.3038" transform="translate(-325.60347 -248.59674)" style="fill:#f79e1b"/></g></svg>